HIERARCHY
ROOT Hips
{
	OFFSET 0.00 0.00 0.00
	CHANNELS 6 Xposition Yposition Zposition Xrotation Yrotation Zrotation
	JOINT Spine
	{
		OFFSET 0.00000 1.70439 2.55658
		CHANNELS 3 Xrotation Yrotation Zrotation
		JOINT Spine1
		{
			OFFSET 0.00000 0.59193 3.35699
			CHANNELS 3 Xrotation Yrotation Zrotation
			JOINT Spine2
			{
				OFFSET 0.00000 0.29710 3.39581
				CHANNELS 3 Xrotation Yrotation Zrotation
				JOINT Spine3
				{
					OFFSET 0.00000 0.00000 3.40878
					CHANNELS 3 Xrotation Yrotation Zrotation
					JOINT Neck
					{
						OFFSET 0.00000 -1.27828 8.94804
						CHANNELS 3 Xrotation Yrotation Zrotation
						JOINT Head
						{
							OFFSET 0.00000 -0.81390 4.61586
							CHANNELS 3 Xrotation Yrotation Zrotation
							End Site
							{
								OFFSET 0.00000 0.00001 5.51796
							}
						}
					}
					JOINT RightShoulder
					{
						OFFSET -1.18875 -1.98124 6.41925
						CHANNELS 3 Xrotation Yrotation Zrotation
						JOINT RightArm
						{
							OFFSET -5.90412 0.00000 0.00000
							CHANNELS 3 Xrotation Yrotation Zrotation
							JOINT RightForeArm
							{
								OFFSET -11.94674 0.00000 0.00000
								CHANNELS 3 Xrotation Yrotation Zrotation
								JOINT RightHand
								{
									OFFSET -10.17720 0.00000 0.00000
									CHANNELS 3 Xrotation Yrotation Zrotation
									JOINT RightHandEnd
									{
										OFFSET -2.84518 0.00000 0.00000
										CHANNELS 3 Xrotation Yrotation Zrotation
										End Site
										{
											OFFSET -2.84518 0.00000 0.00000
										}
									}
									JOINT RightHandThumb1
									{
										OFFSET -1.13807 -1.89679 -0.75871
										CHANNELS 3 Yrotation Xrotation Zrotation
										End Site
										{
											OFFSET -2.74823 -0.73639 0.00000
										}
									}
								}
							}
						}
					}
					JOINT LeftShoulder
					{
						OFFSET 1.18875 -1.98124 6.41925
						CHANNELS 3 Xrotation Yrotation Zrotation
						JOINT LeftArm
						{
							OFFSET 5.90412 0.00000 0.00000
							CHANNELS 3 Xrotation Yrotation Zrotation
							JOINT LeftForeArm
							{
								OFFSET 11.94674 0.00000 0.00000
								CHANNELS 3 Xrotation Yrotation Zrotation
								JOINT LeftHand
								{
									OFFSET 10.17720 0.00000 0.00000
									CHANNELS 3 Xrotation Yrotation Zrotation
									JOINT LeftHandEnd
									{
										OFFSET 2.84518 0.00000 0.00000
										CHANNELS 3 Xrotation Yrotation Zrotation
										End Site
										{
											OFFSET 2.84518 0.00000 0.00000
										}
									}
									JOINT LeftHandThumb1
									{
										OFFSET 1.13807 -1.89679 -0.75871
										CHANNELS 3 Yrotation Xrotation Zrotation
										End Site
										{
											OFFSET 2.74823 -0.73639 0.00000
										}
									}
								}
							}
						}
					}
				}
			}
		}
	}
	JOINT RightUpLeg
	{
		OFFSET -3.52662 0.00000 -1.03025
		CHANNELS 3 Xrotation Yrotation Zrotation
		JOINT RightLeg
		{
			OFFSET 0.00001 0.00000 -17.80159
			CHANNELS 3 Xrotation Yrotation Zrotation
			JOINT RightFoot
			{
				OFFSET 0.00001 0.00000 -16.85992
				CHANNELS 3 Xrotation Yrotation Zrotation
				JOINT RightToeBase
				{
					OFFSET 0.00000 -5.42953 -1.97619
					CHANNELS 3 Xrotation Yrotation Zrotation
					End Site
					{
						OFFSET 0.00000 -2.85300 -0.00000
					}
				}
			}
		}
	}
	JOINT LeftUpLeg
	{
		OFFSET 3.52662 0.00000 -1.03025
		CHANNELS 3 Xrotation Yrotation Zrotation
		JOINT LeftLeg
		{
			OFFSET 0.00001 0.00000 -17.80159
			CHANNELS 3 Xrotation Yrotation Zrotation
			JOINT LeftFoot
			{
				OFFSET 0.00001 0.00000 -16.85992
				CHANNELS 3 Xrotation Yrotation Zrotation
				JOINT LeftToeBase
				{
					OFFSET 0.00000 -5.42953 -1.97619
					CHANNELS 3 Xrotation Yrotation Zrotation
					End Site
					{
						OFFSET 0.00000 -2.85300 -0.00000
					}
				}
			}
		}
	}
}
MOTION
Frames: 17
Frame Time: 0.008342
 2.7059 -7.7525 38.0023 2.2712 4.1821 -176.3393 1.4959 2.0130 -0.7640 0.6785 0.3979 -0.0667 0.4246 -1.4620 -1.7171 -0.2778 -0.0343 0.3640 3.9418 0.3050 -2.5736 0.5362 -0.2680 -0.4723 -1.3415 10.8572 -3.4136 4.0209 4.3595 -2.7013 0.0000 0.0000 14.1797 -4.5789 20.4511 3.7654 0.0000 -0.0000 -0.0000 -0.0000 -0.0000 -0.0000 -8.3045 -10.9170 -3.8931 7.7231 1.9988 3.7660 -0.0000 -0.0000 -17.6327 -6.1883 -20.0403 0.7989 0.0000 0.0000 0.0000 -0.0000 -0.0000 0.0000 -4.0595 7.1899 -33.0509 20.8152 0.0000 0.0000 -16.2673 5.0467 -5.0498 1.0590 0.0000 0.0000 -1.6821 -0.3977 5.9123 12.5009 0.0000 0.0000 -7.0802 9.0482 1.8777 -1.2093 0.0000 -0.0000
 2.6793 -7.7553 38.0068 2.2670 4.1392 -176.4127 1.4655 1.9855 -0.7618 0.6751 0.3946 -0.0671 0.4297 -1.4739 -1.7178 -0.2759 -0.0383 0.3695 3.9577 0.3001 -2.5775 0.5328 -0.2475 -0.4416 -1.3587 10.9022 -3.4060 4.0418 4.3520 -2.6785 0.0000 0.0000 14.1821 -4.5692 20.4176 3.8076 0.0000 -0.0000 -0.0000 -0.0000 -0.0000 0.0000 -8.3427 -10.9359 -3.9333 7.7970 2.0105 3.7424 -0.0000 -0.0000 -17.5811 -6.1830 -19.9301 0.7815 0.0000 -0.0000 -0.0000 0.0000 0.0000 0.0000 -4.0214 7.1813 -33.1529 20.6990 0.0000 0.0000 -16.1980 4.9549 -4.9204 1.0930 0.0000 0.0000 -1.6795 -0.3902 5.9102 12.4948 0.0000 0.0000 -7.1032 8.9797 1.9358 -1.2073 0.0000 -0.0000
 2.6460 -7.7584 38.0125 2.2819 4.0815 -176.5051 1.4494 1.9485 -0.7604 0.6692 0.3901 -0.0672 0.4345 -1.4878 -1.7204 -0.2730 -0.0433 0.3766 3.9773 0.2897 -2.5841 0.5326 -0.2233 -0.4033 -1.3840 10.9523 -3.3959 4.0702 4.3435 -2.6464 0.0000 0.0000 14.1819 -4.5608 20.3725 3.8549 0.0000 0.0000 -0.0000 0.0000 0.0000 -0.0000 -8.3871 -10.9621 -3.9885 7.8890 2.0283 3.7117 -0.0000 -0.0000 -17.5090 -6.1885 -19.7847 0.7643 0.0000 -0.0000 0.0000 0.0000 -0.0000 -0.0000 -3.9472 7.1622 -33.2797 20.5414 0.0000 0.0000 -16.1064 4.8366 -4.7533 1.1404 0.0000 0.0000 -1.6558 -0.3862 5.9075 12.4883 0.0000 0.0000 -7.1336 8.8938 2.0076 -1.2047 0.0000 -0.0000
 2.6065 -7.7627 38.0191 2.2971 4.0098 -176.6155 1.4275 1.9024 -0.7575 0.6639 0.3879 -0.0675 0.4390 -1.5056 -1.7248 -0.2687 -0.0483 0.3858 3.9989 0.2720 -2.5948 0.5347 -0.1950 -0.3594 -1.4189 11.0019 -3.3846 4.1039 4.3356 -2.6050 0.0000 0.0000 14.1798 -4.5524 20.3201 3.9022 0.0000 0.0000 0.0000 0.0000 0.0000 -0.0000 -8.4377 -10.9923 -4.0585 7.9986 2.0502 3.6728 -0.0000 -0.0000 -17.4160 -6.2050 -19.6073 0.7511 -0.0000 -0.0000 0.0000 0.0000 -0.0000 -0.0000 -3.8621 7.1338 -33.4185 20.3504 0.0000 0.0000 -15.9944 4.6969 -4.5574 1.1994 0.0000 0.0000 -1.6354 -0.3849 5.9053 12.4884 0.0000 0.0000 -7.1725 8.7914 2.0933 -1.2011 0.0000 -0.0000
 2.5620 -7.7680 38.0263 2.3165 3.9246 -176.7403 1.4053 1.8488 -0.7544 0.6572 0.3879 -0.0673 0.4451 -1.5272 -1.7316 -0.2636 -0.0543 0.3956 4.0214 0.2476 -2.6082 0.5405 -0.1652 -0.3104 -1.4632 11.0463 -3.3701 4.1418 4.3304 -2.5541 0.0000 0.0000 14.1742 -4.5487 20.2625 3.9490 0.0000 -0.0000 -0.0000 -0.0000 -0.0000 0.0000 -8.4902 -11.0254 -4.1391 8.1216 2.0767 3.6248 -0.0000 -0.0000 -17.3033 -6.2317 -19.4009 0.7444 0.0000 -0.0000 -0.0000 -0.0000 0.0000 -0.0000 -3.7618 7.0936 -33.5664 20.1270 0.0000 0.0000 -15.8633 4.5405 -4.3366 1.2685 0.0000 0.0000 -1.6145 -0.3883 5.9033 12.4954 0.0000 0.0000 -7.2190 8.6747 2.1909 -1.1968 0.0000 -0.0000
 2.5139 -7.7743 38.0340 2.3383 3.8298 -176.8764 1.3833 1.7920 -0.7507 0.6476 0.3866 -0.0670 0.4535 -1.5492 -1.7399 -0.2577 -0.0602 0.4057 4.0444 0.2148 -2.6246 0.5498 -0.1340 -0.2593 -1.5168 11.0816 -3.3509 4.1810 4.3266 -2.4983 0.0000 0.0000 14.1677 -4.5492 20.2024 3.9917 -0.0000 -0.0000 0.0000 -0.0000 -0.0000 0.0000 -8.5431 -11.0603 -4.2294 8.2559 2.1075 3.5684 -0.0000 -0.0000 -17.1733 -6.2675 -19.1712 0.7465 0.0000 -0.0000 -0.0000 0.0000 0.0000 0.0000 -3.6519 7.0444 -33.7163 19.8791 0.0000 0.0000 -15.7176 4.3738 -4.0975 1.3435 0.0000 0.0000 -1.5958 -0.3946 5.9032 12.5102 0.0000 0.0000 -7.2716 8.5464 2.2973 -1.1912 0.0000 -0.0000
 2.4636 -7.7815 38.0418 2.3638 3.7278 -177.0192 1.3623 1.7328 -0.7465 0.6381 0.3865 -0.0671 0.4639 -1.5724 -1.7501 -0.2512 -0.0663 0.4166 4.0659 0.1749 -2.6436 0.5639 -0.1039 -0.2082 -1.5768 11.1055 -3.3292 4.2188 4.3232 -2.4361 0.0000 0.0000 14.1594 -4.5543 20.1450 4.0256 0.0000 -0.0000 -0.0000 -0.0000 -0.0000 0.0000 -8.5933 -11.0948 -4.3256 8.3980 2.1425 3.5030 -0.0000 -0.0000 -17.0291 -6.3115 -18.9254 0.7579 0.0000 0.0000 0.0000 0.0000 0.0000 0.0000 -3.5323 6.9861 -33.8637 19.6119 0.0000 0.0000 -15.5609 4.2037 -3.8467 1.4201 0.0000 0.0000 -1.5777 -0.4041 5.9044 12.5323 0.0000 0.0000 -7.3289 8.4092 2.4104 -1.1843 0.0000 -0.0000
 2.4129 -7.7891 38.0495 2.3946 3.6206 -177.1645 1.3457 1.6720 -0.7420 0.6278 0.3878 -0.0670 0.4757 -1.5958 -1.7619 -0.2436 -0.0727 0.4272 4.0853 0.1285 -2.6648 0.5819 -0.0760 -0.1586 -1.6409 11.1156 -3.3042 4.2503 4.3193 -2.3712 0.0000 0.0000 14.1512 -4.5658 20.0898 4.0536 0.0000 -0.0000 -0.0000 -0.0000 -0.0000 0.0000 -8.6397 -11.1278 -4.4261 8.5434 2.1828 3.4323 -0.0000 -0.0000 -16.8775 -6.3570 -18.6712 0.7803 0.0000 -0.0000 -0.0000 0.0000 0.0000 0.0000 -3.4032 6.9183 -34.0044 19.3310 0.0000 0.0000 -15.3971 4.0371 -3.5913 1.4942 0.0000 0.0000 -1.5587 -0.4181 5.9093 12.5621 0.0000 0.0000 -7.3895 8.2665 2.5247 -1.1764 0.0000 -0.0000
 2.3629 -7.7971 38.0570 2.4283 3.5127 -177.3079 1.3310 1.6142 -0.7373 0.6185 0.3895 -0.0671 0.4895 -1.6199 -1.7753 -0.2357 -0.0784 0.4374 4.1017 0.0770 -2.6869 0.6033 -0.0515 -0.1128 -1.7064 11.1119 -3.2766 4.2746 4.3128 -2.3043 0.0000 0.0000 14.1434 -4.5861 20.0399 4.0748 0.0000 -0.0000 0.0000 -0.0000 -0.0000 -0.0000 -8.6801 -11.1567 -4.5265 8.6904 2.2270 3.3562 -0.0000 -0.0000 -16.7231 -6.4025 -18.4171 0.8135 0.0000 0.0000 0.0000 0.0000 -0.0000 -0.0000 -3.2708 6.8448 -34.1333 19.0462 0.0000 0.0000 -15.2320 3.8805 -3.3393 1.5615 0.0000 0.0000 -1.5412 -0.4339 5.9168 12.5985 0.0000 0.0000 -7.4516 8.1207 2.6390 -1.1670 0.0000 -0.0000
 2.3149 -7.8050 38.0640 2.4669 3.4059 -177.4457 1.3222 1.5578 -0.7324 0.6090 0.3922 -0.0674 0.5048 -1.6414 -1.7897 -0.2270 -0.0846 0.4463 4.1141 0.0224 -2.7095 0.6281 -0.0319 -0.0726 -1.7686 11.0945 -3.2469 4.2877 4.3017 -2.2385 0.0000 0.0000 14.1382 -4.6141 19.9933 4.0899 -0.0000 0.0000 -0.0000 -0.0000 -0.0000 -0.0000 -8.7145 -11.1811 -4.6259 8.8359 2.2766 3.2787 -0.0000 -0.0000 -16.5728 -6.4465 -18.1712 0.8536 -0.0000 -0.0000 0.0000 -0.0000 -0.0000 0.0000 -3.1341 6.7665 -34.2506 18.7627 0.0000 0.0000 -15.0692 3.7384 -3.0950 1.6180 0.0000 0.0000 -1.5223 -0.4523 5.9275 12.6413 0.0000 0.0000 -7.5143 7.9739 2.7494 -1.1566 0.0000 -0.0000
 2.2697 -7.8126 38.0705 2.5124 3.3032 -177.5751 1.3194 1.5062 -0.7280 0.6034 0.3959 -0.0671 0.5201 -1.6639 -1.8053 -0.2179 -0.0894 0.4533 4.1226 -0.0331 -2.7309 0.6546 -0.0171 -0.0385 -1.8238 11.0662 -3.2155 4.2882 4.2835 -2.1747 0.0000 0.0000 14.1367 -4.6508 19.9467 4.1014 0.0000 0.0000 0.0000 0.0000 0.0000 0.0000 -8.7418 -11.1999 -4.7193 8.9794 2.3309 3.1983 -0.0000 -0.0000 -16.4302 -6.4865 -17.9407 0.8987 -0.0000 0.0000 -0.0000 -0.0000 -0.0000 0.0000 -2.9927 6.6865 -34.3563 18.4867 0.0000 0.0000 -14.9127 3.6136 -2.8621 1.6613 0.0000 0.0000 -1.4988 -0.4711 5.9396 12.6879 0.0000 0.0000 -7.5761 7.8277 2.8554 -1.1451 0.0000 -0.0000
 2.2277 -7.8203 38.0763 2.5532 3.2040 -177.6940 1.3145 1.4611 -0.7233 0.5939 0.3966 -0.0675 0.5418 -1.6870 -1.8228 -0.2095 -0.0927 0.4600 4.1268 -0.0870 -2.7505 0.6811 -0.0075 -0.0112 -1.8705 11.0292 -3.1837 4.2773 4.2579 -2.1132 0.0000 0.0000 14.1386 -4.6976 19.8976 4.1134 -0.0000 -0.0000 0.0000 -0.0000 -0.0000 0.0000 -8.7638 -11.2093 -4.8063 9.1192 2.3875 3.1187 -0.0000 -0.0000 -16.3008 -6.5221 -17.7316 0.9443 -0.0000 -0.0000 0.0000 -0.0000 0.0000 0.0000 -2.8621 6.6048 -34.4464 18.2242 0.0000 0.0000 -14.7642 3.5085 -2.6483 1.6904 0.0000 0.0000 -1.4850 -0.4920 5.9540 12.7423 0.0000 0.0000 -7.6382 7.6830 2.9544 -1.1327 0.0000 -0.0000
 2.1888 -7.8272 38.0816 2.5989 3.1115 -177.8017 1.3149 1.4161 -0.7193 0.5880 0.3994 -0.0682 0.5625 -1.7036 -1.8393 -0.2008 -0.0977 0.4643 4.1273 -0.1384 -2.7685 0.7070 -0.0026 0.0097 -1.9038 10.9862 -3.1520 4.2544 4.2230 -2.0570 0.0000 0.0000 14.1461 -4.7525 19.8385 4.1285 0.0000 0.0000 0.0000 0.0000 -0.0000 -0.0000 -8.7808 -11.2129 -4.8875 9.2554 2.4490 3.0415 -0.0000 -0.0000 -16.1873 -6.5538 -17.5468 0.9861 0.0000 -0.0000 -0.0000 -0.0000 -0.0000 0.0000 -2.7314 6.5266 -34.5304 17.9783 0.0000 0.0000 -14.6264 3.4201 -2.4475 1.7053 0.0000 0.0000 -1.4680 -0.5112 5.9670 12.8001 0.0000 0.0000 -7.6992 7.5402 3.0487 -1.1202 0.0000 -0.0000
 2.1529 -7.8337 38.0863 2.6447 3.0248 -177.8981 1.3164 1.3752 -0.7160 0.5832 0.4006 -0.0688 0.5846 -1.7191 -1.8564 -0.1926 -0.1009 0.4664 4.1245 -0.1858 -2.7835 0.7308 -0.0018 0.0251 -1.9231 10.9416 -3.1204 4.2221 4.1777 -2.0049 0.0000 0.0000 14.1588 -4.8152 19.7647 4.1475 0.0000 -0.0000 -0.0000 -0.0000 -0.0000 -0.0000 -8.7932 -11.2095 -4.9606 9.3867 2.5134 2.9669 -0.0000 -0.0000 -16.0911 -6.5824 -17.3887 1.0201 0.0000 0.0000 -0.0000 0.0000 0.0000 0.0000 -2.6068 6.4522 -34.6104 17.7508 0.0000 0.0000 -14.4990 3.3459 -2.2606 1.7076 0.0000 0.0000 -1.4537 -0.5296 5.9793 12.8627 0.0000 0.0000 -7.7598 7.3992 3.1362 -1.1076 0.0000 -0.0000
 2.1192 -7.8397 38.0904 2.6907 2.9447 -177.9847 1.3197 1.3389 -0.7130 0.5789 0.4001 -0.0694 0.6075 -1.7340 -1.8743 -0.1848 -0.1032 0.4669 4.1191 -0.2267 -2.7954 0.7513 -0.0041 0.0356 -1.9259 10.9001 -3.0899 4.1826 4.1215 -1.9564 0.0000 0.0000 14.1751 -4.8863 19.6715 4.1757 0.0000 0.0000 0.0000 -0.0000 -0.0000 0.0000 -8.8032 -11.1990 -5.0265 9.5143 2.5807 2.8958 -0.0000 -0.0000 -16.0124 -6.6101 -17.2570 1.0430 0.0000 -0.0000 0.0000 -0.0000 -0.0000 0.0000 -2.4881 6.3848 -34.6906 17.5430 0.0000 0.0000 -14.3819 3.2814 -2.0842 1.6999 0.0000 0.0000 -1.4407 -0.5453 5.9895 12.9286 0.0000 0.0000 -7.8198 7.2601 3.2187 -1.0956 0.0000 -0.0000
 2.0873 -7.8451 38.0941 2.7364 2.8701 -178.0628 1.3239 1.3038 -0.7105 0.5756 0.3986 -0.0706 0.6304 -1.7461 -1.8922 -0.1776 -0.1054 0.4661 4.1115 -0.2612 -2.8045 0.7679 -0.0082 0.0428 -1.9130 10.8634 -3.0604 4.1404 4.0558 -1.9114 0.0000 0.0000 14.1943 -4.9622 19.5555 4.2120 0.0000 -0.0000 -0.0000 -0.0000 -0.0000 -0.0000 -8.8110 -11.1831 -5.0857 9.6363 2.6501 2.8279 -0.0000 -0.0000 -15.9499 -6.6366 -17.1499 1.0550 0.0000 -0.0000 -0.0000 0.0000 0.0000 0.0000 -2.3755 6.3249 -34.7761 17.3539 0.0000 0.0000 -14.2737 3.2212 -1.9141 1.6853 0.0000 0.0000 -1.4298 -0.5584 5.9969 12.9983 0.0000 0.0000 -7.8798 7.1227 3.2967 -1.0846 0.0000 -0.0000
 2.0563 -7.8501 38.0974 2.7796 2.8002 -178.1344 1.3269 1.2698 -0.7085 0.5728 0.3957 -0.0716 0.6530 -1.7561 -1.9100 -0.1708 -0.1070 0.4638 4.1027 -0.2894 -2.8111 0.7803 -0.0132 0.0478 -1.8850 10.8332 -3.0316 4.0985 3.9822 -1.8698 0.0000 0.0000 14.2150 -5.0424 19.4155 4.2568 -0.0000 -0.0000 -0.0000 0.0000 -0.0000 -0.0000 -8.8165 -11.1629 -5.1390 9.7513 2.7208 2.7633 -0.0000 -0.0000 -15.9006 -6.6681 -17.0647 1.0506 0.0000 -0.0000 -0.0000 -0.0000 0.0000 0.0000 -2.2708 6.2735 -34.8702 17.1826 0.0000 0.0000 -14.1727 3.1599 -1.7468 1.6683 0.0000 0.0000 -1.4234 -0.5687 6.0014 13.0721 0.0000 0.0000 -7.9403 6.9872 3.3711 -1.0750 0.0000 -0.0000
